<svg xmlns="http://www.w3.org/2000/svg" xmlns:xlink="http://www.w3.org/1999/xlink" width="1920" zoomAndPan="magnify" viewBox="0 0 1440 809.999993" height="1080" preserveAspectRatio="xMidYMid meet" version="1.0"><defs><g/><clipPath id="2fb7424680"><path d="M 585.136719 349 L 838.898438 349 L 838.898438 555.199219 L 585.136719 555.199219 Z M 585.136719 349 " clip-rule="nonzero"/></clipPath><clipPath id="8e2596bf80"><path d="M 585.136719 349 L 837 349 L 837 431 L 585.136719 431 Z M 585.136719 349 " clip-rule="nonzero"/></clipPath><clipPath id="e81f191fc2"><path d="M 686.378906 231.273438 L 854.84375 231.273438 L 854.84375 305.34375 L 686.378906 305.34375 Z M 686.378906 231.273438 " clip-rule="nonzero"/></clipPath></defs><g clip-path="url(#2fb7424680)"><path fill="#f4ba7a" d="M 585.136719 381.097656 C 585.136719 381.097656 585.675781 493.808594 586.757812 496.800781 C 587.839844 499.796875 668.203125 555.199219 673.691406 555.199219 C 679.183594 555.199219 835.410156 507.285156 837.90625 501.792969 C 840.402344 496.304688 836.28125 381.097656 836.28125 381.097656 L 720.980469 349.015625 C 720.980469 349.015625 588.542969 376.738281 585.136719 381.097656 " fill-opacity="1" fill-rule="nonzero"/></g><path fill="#dd9650" d="M 674.191406 549.34375 C 673.292969 549.34375 672.558594 548.613281 672.558594 547.714844 L 672.464844 428.78125 C 672.464844 427.882812 673.195312 427.152344 674.097656 427.148438 C 675 427.148438 675.726562 427.878906 675.726562 428.78125 L 675.824219 547.710938 C 675.824219 548.613281 675.09375 549.34375 674.191406 549.34375 " fill-opacity="1" fill-rule="nonzero"/><g clip-path="url(#8e2596bf80)"><path fill="#dd9650" d="M 585.136719 381.097656 C 585.136719 381.097656 663.117188 429.867188 674.066406 430.527344 C 685.011719 431.1875 836.28125 381.097656 836.28125 381.097656 L 720.980469 349.015625 C 720.980469 349.015625 588.542969 376.738281 585.136719 381.097656 " fill-opacity="1" fill-rule="nonzero"/></g><path fill="#000000" d="M 615.980469 399.917969 C 615.980469 399.917969 633.554688 320.007812 688.832031 300.148438 C 744.109375 280.289062 775.550781 334.242188 775.550781 334.242188 C 775.550781 334.242188 838.441406 376.609375 839.101562 383.890625 C 839.765625 391.171875 821.074219 397.707031 804.851562 391.417969 L 773.015625 401.90625 C 773.015625 401.90625 782.160156 419.59375 777.207031 427.582031 C 774.121094 432.558594 752.628906 435.125 739.058594 412.949219 L 676.144531 431.230469 C 674.816406 431.640625 671.957031 431.53125 669.339844 430.535156 C 651.03125 420.691406 633.15625 410.546875 615.980469 399.917969 " fill-opacity="1" fill-rule="nonzero"/><path fill="#c1b5a0" d="M 771.257812 400.476562 C 770.898438 400.476562 770.546875 400.300781 770.339844 399.976562 C 761.476562 386.199219 736.535156 350.039062 727.667969 348.214844 C 717.515625 346.125 713.417969 359.570312 713.375 359.703125 C 713.207031 360.28125 712.605469 360.617188 712.023438 360.441406 C 711.449219 360.269531 711.117188 359.664062 711.289062 359.089844 C 711.335938 358.933594 716.019531 343.597656 728.105469 346.082031 C 739.675781 348.46875 770.847656 396.746094 772.171875 398.800781 C 772.496094 399.304688 772.351562 399.980469 771.84375 400.300781 C 771.664062 400.421875 771.457031 400.476562 771.257812 400.476562 " fill-opacity="1" fill-rule="nonzero"/><path fill="#c1b5a0" d="M 737.828125 412.613281 C 737.433594 412.613281 737.054688 412.398438 736.859375 412.023438 L 728.917969 396.636719 C 728.644531 396.101562 728.851562 395.445312 729.386719 395.167969 C 729.921875 394.894531 730.574219 395.105469 730.851562 395.636719 L 738.796875 411.027344 C 739.070312 411.5625 738.859375 412.21875 738.328125 412.492188 C 738.167969 412.574219 737.996094 412.613281 737.828125 412.613281 " fill-opacity="1" fill-rule="nonzero"/><path fill="#c1b5a0" d="M 729.261719 411.804688 C 729.132812 411.804688 729 411.785156 728.871094 411.734375 C 728.3125 411.519531 728.03125 410.886719 728.25 410.328125 L 731.730469 401.289062 C 731.949219 400.730469 732.578125 400.449219 733.136719 400.667969 C 733.699219 400.882812 733.976562 401.511719 733.761719 402.074219 L 730.277344 411.109375 C 730.113281 411.542969 729.699219 411.804688 729.261719 411.804688 " fill-opacity="1" fill-rule="nonzero"/><path fill="#c1b5a0" d="M 659.199219 421.425781 C 658.886719 421.425781 658.578125 421.292969 658.363281 421.039062 C 646.234375 406.644531 650.726562 387.382812 650.921875 386.570312 C 651.0625 385.988281 651.652344 385.625 652.238281 385.769531 C 652.820312 385.910156 653.179688 386.5 653.035156 387.082031 C 652.992188 387.269531 648.617188 406.101562 660.027344 419.636719 C 660.414062 420.097656 660.355469 420.785156 659.894531 421.171875 C 659.691406 421.339844 659.445312 421.425781 659.199219 421.425781 " fill-opacity="1" fill-rule="nonzero"/><path fill="#c1b5a0" d="M 803.175781 390.863281 C 802.960938 390.863281 802.746094 390.800781 802.554688 390.667969 C 792.671875 383.75 775.308594 367.304688 775.132812 367.136719 C 774.699219 366.722656 774.679688 366.035156 775.09375 365.597656 C 775.507812 365.164062 776.195312 365.144531 776.632812 365.558594 C 776.804688 365.722656 794.054688 382.058594 803.800781 388.886719 C 804.292969 389.230469 804.414062 389.90625 804.070312 390.398438 C 803.859375 390.703125 803.519531 390.863281 803.175781 390.863281 " fill-opacity="1" fill-rule="nonzero"/><path fill="#c1b5a0" d="M 757.679688 343.273438 C 757.648438 343.273438 757.621094 343.269531 757.589844 343.269531 C 756.992188 343.222656 756.546875 342.695312 756.59375 342.097656 C 757.09375 335.917969 759.007812 331.992188 762.28125 330.421875 C 767.128906 328.097656 772.9375 331.972656 773.183594 332.140625 C 773.679688 332.476562 773.808594 333.152344 773.472656 333.648438 C 773.136719 334.144531 772.460938 334.277344 771.964844 333.941406 C 771.914062 333.90625 766.929688 330.601562 763.214844 332.386719 C 760.695312 333.597656 759.195312 336.925781 758.761719 342.273438 C 758.71875 342.839844 758.242188 343.273438 757.679688 343.273438 " fill-opacity="1" fill-rule="nonzero"/><path fill="#c1b5a0" d="M 703.480469 311.953125 C 703.453125 311.953125 703.429688 311.949219 703.402344 311.949219 C 702.800781 311.90625 702.351562 311.386719 702.394531 310.789062 C 702.65625 307.09375 705.289062 302.671875 705.402344 302.488281 C 705.710938 301.972656 706.378906 301.804688 706.890625 302.113281 C 707.40625 302.421875 707.574219 303.089844 707.265625 303.605469 C 707.242188 303.644531 704.792969 307.773438 704.5625 310.941406 C 704.523438 311.515625 704.042969 311.953125 703.480469 311.953125 " fill-opacity="1" fill-rule="nonzero"/><path fill="#c1b5a0" d="M 708.816406 309.59375 C 708.558594 309.59375 708.300781 309.503906 708.09375 309.320312 C 706.4375 307.847656 701.429688 306.492188 699.644531 306.09375 C 699.058594 305.964844 698.6875 305.382812 698.816406 304.796875 C 698.949219 304.210938 699.53125 303.847656 700.117188 303.96875 C 700.828125 304.128906 707.160156 305.582031 709.539062 307.695312 C 709.988281 308.09375 710.027344 308.78125 709.628906 309.230469 C 709.414062 309.472656 709.117188 309.59375 708.816406 309.59375 " fill-opacity="1" fill-rule="nonzero"/><g clip-path="url(#e81f191fc2)"><path fill="#000000" d="M 837.117188 236.597656 C 817.257812 237.757812 809.976562 253.644531 788.625 253.148438 C 767.277344 252.652344 733.515625 218.394531 706.332031 236.597656 C 679.148438 254.804688 688.003906 305.03125 688.003906 305.03125 L 708.03125 299.15625 C 706.207031 285.75 708.195312 266.886719 716.636719 259.769531 C 725.074219 252.652344 737.984375 251.328125 758.671875 270.03125 C 779.359375 288.730469 814.773438 289.558594 839.121094 275.492188 C 863.46875 261.421875 856.976562 235.441406 837.117188 236.597656 " fill-opacity="1" fill-rule="nonzero"/></g><path fill="#f8ab7f" d="M 820.070312 376.519531 C 823.933594 371.972656 814.527344 362.179688 807.765625 368.304688 C 801.003906 374.433594 816.207031 381.066406 820.070312 376.519531 " fill-opacity="1" fill-rule="nonzero"/><path fill="#f8ab7f" d="M 823.195312 374.351562 C 822.6875 377.15625 827.832031 378.164062 828.496094 375.570312 C 829.167969 372.921875 823.742188 371.3125 823.195312 374.351562 " fill-opacity="1" fill-rule="nonzero"/><path fill="#f8ab7f" d="M 823.019531 384.066406 C 825.445312 383.261719 823.988281 376.703125 820.339844 378.316406 C 816.765625 379.898438 820.589844 384.867188 823.019531 384.066406 " fill-opacity="1" fill-rule="nonzero"/><path fill="#f8ab7f" d="M 812.472656 385.460938 C 814.941406 386.136719 817.867188 379.667969 813.433594 379.191406 C 809.542969 378.777344 810.007812 384.785156 812.472656 385.460938 " fill-opacity="1" fill-rule="nonzero"/><path fill="#f8ab7f" d="M 766.832031 415.542969 C 771.894531 412.382812 765.914062 400.195312 757.609375 403.976562 C 749.304688 407.757812 761.769531 418.699219 766.832031 415.542969 " fill-opacity="1" fill-rule="nonzero"/><path fill="#f8ab7f" d="M 770.46875 414.429688 C 769.132812 416.945312 773.730469 419.46875 775.148438 417.199219 C 776.59375 414.882812 771.917969 411.695312 770.46875 414.429688 " fill-opacity="1" fill-rule="nonzero"/><path fill="#f8ab7f" d="M 767.347656 423.628906 C 769.902344 423.597656 770.511719 416.90625 766.546875 417.335938 C 762.65625 417.757812 764.789062 423.65625 767.347656 423.628906 " fill-opacity="1" fill-rule="nonzero"/><path fill="#f8ab7f" d="M 756.878906 421.75 C 759.023438 423.144531 763.777344 417.871094 759.695312 416.070312 C 756.117188 414.492188 754.734375 420.355469 756.878906 421.75 " fill-opacity="1" fill-rule="nonzero"/><g fill="#000000" fill-opacity="1"><g transform="translate(631.148422, 650.960963)"><g><path d="M 42.4375 -25.828125 L 49.765625 -25.828125 L 49.765625 -13.265625 L 42.4375 -13.265625 L 42.4375 0 L 29.03125 0 L 29.03125 -13.265625 L -1.90625 -13.265625 L -1.90625 -17.53125 L 28.265625 -62.875 L 42.4375 -62.875 Z M 29.03125 -43.734375 L 28.875 -43.734375 L 17.671875 -25.828125 L 29.03125 -25.828125 Z M 29.03125 -43.734375 "/></g></g></g><g fill="#000000" fill-opacity="1"><g transform="translate(681.894487, 650.960963)"><g><path d="M 2.140625 -31.390625 C 2.140625 -41.753906 4.601562 -49.78125 9.53125 -55.46875 C 14.457031 -61.164062 20.523438 -64.015625 27.734375 -64.015625 C 34.953125 -64.015625 41.007812 -61.164062 45.90625 -55.46875 C 50.8125 -49.78125 53.265625 -41.753906 53.265625 -31.390625 C 53.265625 -25.753906 52.578125 -20.800781 51.203125 -16.53125 C 49.835938 -12.269531 47.945312 -8.878906 45.53125 -6.359375 C 43.113281 -3.847656 40.421875 -1.96875 37.453125 -0.71875 C 34.484375 0.519531 31.242188 1.140625 27.734375 1.140625 C 24.234375 1.140625 20.992188 0.519531 18.015625 -0.71875 C 15.046875 -1.96875 12.34375 -3.847656 9.90625 -6.359375 C 7.46875 -8.878906 5.5625 -12.269531 4.1875 -16.53125 C 2.820312 -20.800781 2.140625 -25.753906 2.140625 -31.390625 Z M 16.609375 -31.390625 C 16.609375 -24.734375 17.570312 -19.742188 19.5 -16.421875 C 21.4375 -13.097656 24.179688 -11.4375 27.734375 -11.4375 C 31.242188 -11.4375 33.960938 -13.097656 35.890625 -16.421875 C 37.816406 -19.742188 38.78125 -24.734375 38.78125 -31.390625 C 38.78125 -37.742188 37.800781 -42.671875 35.84375 -46.171875 C 33.894531 -49.679688 31.191406 -51.4375 27.734375 -51.4375 C 24.285156 -51.4375 21.566406 -49.671875 19.578125 -46.140625 C 17.597656 -42.609375 16.609375 -37.691406 16.609375 -31.390625 Z M 16.609375 -31.390625 "/></g></g></g><g fill="#000000" fill-opacity="1"><g transform="translate(737.288467, 650.960963)"><g><path d="M 42.4375 -25.828125 L 49.765625 -25.828125 L 49.765625 -13.265625 L 42.4375 -13.265625 L 42.4375 0 L 29.03125 0 L 29.03125 -13.265625 L -1.90625 -13.265625 L -1.90625 -17.53125 L 28.265625 -62.875 L 42.4375 -62.875 Z M 29.03125 -43.734375 L 28.875 -43.734375 L 17.671875 -25.828125 L 29.03125 -25.828125 Z M 29.03125 -43.734375 "/></g></g></g><g fill="#000000" fill-opacity="1"><g transform="translate(788.03904, 650.960963)"><g/></g></g><g fill="#000000" fill-opacity="1"><g transform="translate(546.740865, 407.415047)"><g><path d="M 0.28125 -2.40625 L -20.234375 -4.78125 L -19.421875 -11.859375 L -17.265625 -11.609375 L -17.25 -11.6875 C -18.882812 -13.75 -19.582031 -15.816406 -19.34375 -17.890625 C -19.164062 -19.378906 -18.691406 -20.742188 -17.921875 -21.984375 C -17.160156 -23.222656 -16.101562 -24.097656 -14.75 -24.609375 C -17.007812 -26.984375 -18 -29.394531 -17.71875 -31.84375 C -17.46875 -34.03125 -16.640625 -35.835938 -15.234375 -37.265625 C -13.828125 -38.691406 -11.8125 -39.253906 -9.1875 -38.953125 L 4.328125 -37.390625 L 3.515625 -30.3125 L -8.078125 -31.65625 C -9.171875 -31.78125 -10.117188 -31.582031 -10.921875 -31.0625 C -11.734375 -30.550781 -12.207031 -29.695312 -12.34375 -28.5 C -12.46875 -27.457031 -12.25 -26.628906 -11.6875 -26.015625 C -11.125 -25.398438 -10.40625 -25.015625 -9.53125 -24.859375 L 2.71875 -23.4375 L 1.890625 -16.359375 L -9.703125 -17.703125 C -10.796875 -17.828125 -11.742188 -17.628906 -12.546875 -17.109375 C -13.347656 -16.597656 -13.816406 -15.742188 -13.953125 -14.546875 C -14.085938 -13.441406 -13.84375 -12.578125 -13.21875 -11.953125 C -12.601562 -11.335938 -11.832031 -10.976562 -10.90625 -10.875 L 1.09375 -9.484375 Z M 0.28125 -2.40625 "/></g></g></g><g fill="#000000" fill-opacity="1"><g transform="translate(551.620025, 372.455824)"><g><path d="M -17.265625 -35.546875 L -11.59375 -32.109375 L -17.53125 -22.328125 L -11.875 -18.890625 L -6.203125 -28.25 L -0.53125 -24.8125 L -6.203125 -15.453125 L -0.484375 -11.984375 L 5.453125 -21.765625 L 11.125 -18.3125 L 1.25 -2.0625 L -27.140625 -19.296875 Z M -17.265625 -35.546875 "/></g></g></g><g fill="#000000" fill-opacity="1"><g transform="translate(561.298321, 354.875136)"><g><path d="M 1.84375 -4.65625 C -1.226562 -4.789062 -3.769531 -6.09375 -5.78125 -8.5625 C -7.800781 -11.039062 -8.535156 -13.832031 -7.984375 -16.9375 C -7.429688 -20.039062 -5.789062 -22.707031 -3.0625 -24.9375 C -0.382812 -27.125 2.523438 -28.164062 5.671875 -28.0625 C 8.816406 -27.957031 11.390625 -26.675781 13.390625 -24.21875 C 15.390625 -21.769531 16.140625 -19.015625 15.640625 -15.953125 C 15.148438 -12.890625 13.523438 -10.234375 10.765625 -7.984375 C 7.890625 -5.640625 4.914062 -4.53125 1.84375 -4.65625 Z M -1.046875 -16.953125 C -1.191406 -15.660156 -0.816406 -14.460938 0.078125 -13.359375 C 0.984375 -12.253906 2.0625 -11.628906 3.3125 -11.484375 C 4.5625 -11.347656 5.75 -11.738281 6.875 -12.65625 C 7.957031 -13.539062 8.554688 -14.625 8.671875 -15.90625 C 8.796875 -17.1875 8.414062 -18.367188 7.53125 -19.453125 C 6.632812 -20.546875 5.535156 -21.148438 4.234375 -21.265625 C 2.941406 -21.390625 1.773438 -21.03125 0.734375 -20.1875 C -0.316406 -19.320312 -0.910156 -18.242188 -1.046875 -16.953125 Z M -1.046875 -16.953125 "/></g></g></g><g fill="#000000" fill-opacity="1"><g transform="translate(577.466386, 338.619164)"><g><path d="M 14.6875 -3.453125 L 10 -2.34375 L -5.53125 -19.921875 L 2.46875 -21.796875 L 9.9375 -12.09375 L 12.1875 -24.09375 L 16.984375 -25.21875 L 24.375 -15.484375 L 26.703125 -27.5 L 34.6875 -29.375 L 28.65625 -6.734375 L 23.953125 -5.625 L 16.875 -14.9375 Z M 14.6875 -3.453125 "/></g></g></g><g fill="#000000" fill-opacity="1"><g transform="translate(612.008117, 331.280521)"><g><path d="M 11.4375 -21.484375 L 6.21875 -25.484375 C 6.238281 -25.585938 6.375 -25.851562 6.625 -26.28125 C 6.875 -26.707031 7.316406 -27.257812 7.953125 -27.9375 C 8.585938 -28.613281 9.335938 -29.21875 10.203125 -29.75 C 11.066406 -30.28125 12.207031 -30.664062 13.625 -30.90625 C 15.050781 -31.15625 16.597656 -31.109375 18.265625 -30.765625 C 21.304688 -30.128906 23.742188 -28.6875 25.578125 -26.4375 C 27.421875 -24.195312 28.0625 -21.726562 27.5 -19.03125 C 26.8125 -15.6875 24.046875 -13.523438 19.203125 -12.546875 C 18.554688 -12.410156 18.101562 -12.128906 17.84375 -11.703125 C 17.59375 -11.273438 17.378906 -10.65625 17.203125 -9.84375 L 16.75 -7.640625 L 10.25 -8.984375 L 11.140625 -13.28125 C 11.285156 -13.976562 11.425781 -14.523438 11.5625 -14.921875 C 11.695312 -15.328125 11.960938 -15.742188 12.359375 -16.171875 C 12.753906 -16.597656 13.265625 -16.941406 13.890625 -17.203125 C 14.359375 -17.367188 14.984375 -17.554688 15.765625 -17.765625 C 16.546875 -17.972656 17.128906 -18.144531 17.515625 -18.28125 C 17.898438 -18.425781 18.285156 -18.695312 18.671875 -19.09375 C 19.054688 -19.488281 19.316406 -20.019531 19.453125 -20.6875 C 19.648438 -21.632812 19.503906 -22.472656 19.015625 -23.203125 C 18.523438 -23.929688 17.832031 -24.390625 16.9375 -24.578125 C 15.644531 -24.835938 14.523438 -24.632812 13.578125 -23.96875 C 12.628906 -23.3125 11.914062 -22.484375 11.4375 -21.484375 Z M 13.03125 -6.109375 C 14.289062 -5.835938 15.269531 -5.171875 15.96875 -4.109375 C 16.664062 -3.054688 16.882812 -1.898438 16.625 -0.640625 C 16.363281 0.597656 15.703125 1.566406 14.640625 2.265625 C 13.578125 2.972656 12.414062 3.191406 11.15625 2.921875 C 9.914062 2.671875 8.945312 2.015625 8.25 0.953125 C 7.550781 -0.109375 7.332031 -1.257812 7.59375 -2.5 C 7.851562 -3.757812 8.515625 -4.738281 9.578125 -5.4375 C 10.640625 -6.132812 11.789062 -6.359375 13.03125 -6.109375 Z M 13.03125 -6.109375 "/></g></g></g></svg>